<mxfile host="app.diagrams.net" modified="2022-04-03T08:21:09.566Z" agent="5.0 (Macintosh; Intel Mac OS X 10_15_7) AppleWebKit/537.36 (KHTML, like Gecko) Chrome/94.0.4606.81 Safari/537.36" etag="7VoGeflhDxvlAxASDg3w" version="17.4.0" type="github" pages="2">
  <diagram id="AWOcZCu43fl_KOLMqHl1" name="pretictor">
    <mxGraphModel dx="1547" dy="572" grid="1" gridSize="10" guides="1" tooltips="1" connect="1" arrows="1" fold="1" page="1" pageScale="1" pageWidth="827" pageHeight="1169" math="0" shadow="0">
      <root>
        <mxCell id="0" />
        <mxCell id="1" parent="0" />
      </root>
    </mxGraphModel>
  </diagram>
  <diagram id="8zgrNYFM5kxyyUlaMys1" name="executor">
    <mxGraphModel dx="1151" dy="494" grid="1" gridSize="10" guides="1" tooltips="1" connect="1" arrows="1" fold="1" page="1" pageScale="1" pageWidth="827" pageHeight="1169" math="0" shadow="0">
      <root>
        <mxCell id="0" />
        <mxCell id="1" parent="0" />
        <mxCell id="7WLHaZvOcK6RHJFrd4OO-1" value="NaiveExecutor" style="swimlane;fontStyle=1;align=center;verticalAlign=top;childLayout=stackLayout;horizontal=1;startSize=26;horizontalStack=0;resizeParent=1;resizeParentMax=0;resizeLast=0;collapsible=1;marginBottom=0;" vertex="1" parent="1">
          <mxGeometry x="420" y="510" width="330" height="200" as="geometry" />
        </mxCell>
        <mxCell id="7WLHaZvOcK6RHJFrd4OO-2" value="- place_: Place&#xa;- ops_: vector&lt;unique_ptr&lt;OperatorBase&gt;&gt;&#xa;- scope_: Scope*" style="text;strokeColor=none;fillColor=none;align=left;verticalAlign=top;spacingLeft=4;spacingRight=4;overflow=hidden;rotatable=0;points=[[0,0.5],[1,0.5]];portConstraint=eastwest;" vertex="1" parent="7WLHaZvOcK6RHJFrd4OO-1">
          <mxGeometry y="26" width="330" height="44" as="geometry" />
        </mxCell>
        <mxCell id="7WLHaZvOcK6RHJFrd4OO-3" value="" style="line;strokeWidth=1;fillColor=none;align=left;verticalAlign=middle;spacingTop=-1;spacingLeft=3;spacingRight=3;rotatable=0;labelPosition=right;points=[];portConstraint=eastwest;" vertex="1" parent="7WLHaZvOcK6RHJFrd4OO-1">
          <mxGeometry y="70" width="330" height="8" as="geometry" />
        </mxCell>
        <mxCell id="7WLHaZvOcK6RHJFrd4OO-4" value="+ Run(): void&#xa;+ Prepare(scope, desc, block_id, with_feed_fetch_ops): void&#xa;+ CreateVariables(desc, block_id, persistable, scope): void&#xa;+ CleanFeedFetchOps(): void&#xa;+ ResetTrtOps(num): void&#xa;+ FindTensor(name): LoDTensor*&#xa;+ scope(): Scope*&#xa;- CreateOps(desc, block_id, with_feed_fetch_ops): void" style="text;strokeColor=none;fillColor=none;align=left;verticalAlign=top;spacingLeft=4;spacingRight=4;overflow=hidden;rotatable=0;points=[[0,0.5],[1,0.5]];portConstraint=eastwest;" vertex="1" parent="7WLHaZvOcK6RHJFrd4OO-1">
          <mxGeometry y="78" width="330" height="122" as="geometry" />
        </mxCell>
        <mxCell id="7WLHaZvOcK6RHJFrd4OO-5" value="Predictor" style="swimlane;fontStyle=1;align=center;verticalAlign=top;childLayout=stackLayout;horizontal=1;startSize=26;horizontalStack=0;resizeParent=1;resizeParentMax=0;resizeLast=0;collapsible=1;marginBottom=0;" vertex="1" parent="1">
          <mxGeometry x="320" y="50" width="250" height="110" as="geometry" />
        </mxCell>
        <mxCell id="7WLHaZvOcK6RHJFrd4OO-6" value="+ predictor_: unique_ptr&lt;PaddlePredictor&gt;" style="text;strokeColor=none;fillColor=none;align=left;verticalAlign=top;spacingLeft=4;spacingRight=4;overflow=hidden;rotatable=0;points=[[0,0.5],[1,0.5]];portConstraint=eastwest;" vertex="1" parent="7WLHaZvOcK6RHJFrd4OO-5">
          <mxGeometry y="26" width="250" height="26" as="geometry" />
        </mxCell>
        <mxCell id="7WLHaZvOcK6RHJFrd4OO-7" value="" style="line;strokeWidth=1;fillColor=none;align=left;verticalAlign=middle;spacingTop=-1;spacingLeft=3;spacingRight=3;rotatable=0;labelPosition=right;points=[];portConstraint=eastwest;" vertex="1" parent="7WLHaZvOcK6RHJFrd4OO-5">
          <mxGeometry y="52" width="250" height="8" as="geometry" />
        </mxCell>
        <mxCell id="7WLHaZvOcK6RHJFrd4OO-8" value="+ Predictor(config)&#xa;+ Run(): bool&#xa;+ Clone(): unique_ptr&lt;Predictor&gt;&#xa;+ GetInputHandle(name): unique_ptr&lt;Tensor&gt;&#xa;+ GetOutputHandle(name): unique_ptr&lt;Tensor&gt;&#xa;+ GetInputNames(): vector&lt;string&gt;&#xa;+ GetOutputName(): vector&lt;string&gt;" style="text;strokeColor=none;fillColor=none;align=left;verticalAlign=top;spacingLeft=4;spacingRight=4;overflow=hidden;rotatable=0;points=[[0,0.5],[1,0.5]];portConstraint=eastwest;" vertex="1" parent="7WLHaZvOcK6RHJFrd4OO-5">
          <mxGeometry y="60" width="250" height="50" as="geometry" />
        </mxCell>
      </root>
    </mxGraphModel>
  </diagram>
</mxfile>
